<?xml version="1.0" standalone="no"?>
<!DOCTYPE svg PUBLIC "-//W3C//DTD SVG 20010904//EN"
 "http://www.w3.org/TR/2001/REC-SVG-20010904/DTD/svg10.dtd">
<svg version="1.0" xmlns="http://www.w3.org/2000/svg"
 width="700.000000pt" height="700.000000pt" viewBox="0 0 700.000000 700.000000"
 preserveAspectRatio="xMidYMid meet">
<metadata>
Created by potrace 1.11, written by Peter Selinger 2001-2013
</metadata>
<g transform="translate(0.000000,700.000000) scale(0.100000,-0.100000)"
fill="#000000" stroke="none">
<path d="M3548 6996 c-1 -2 -73 -6 -158 -10 -85 -3 -173 -8 -195 -10 -22 -3
-62 -8 -90 -11 -483 -55 -978 -233 -1415 -509 -920 -579 -1521 -1582 -1596
-2661 -12 -167 -6 -544 10 -620 2 -11 7 -47 10 -80 4 -33 11 -85 16 -115 5
-30 12 -71 15 -90 23 -136 100 -405 166 -577 79 -208 226 -496 342 -668 46
-69 204 -282 227 -306 8 -8 40 -44 70 -79 76 -88 210 -222 300 -300 41 -36 77
-67 80 -70 20 -20 122 -98 205 -157 285 -202 599 -361 922 -467 158 -51 280
-83 403 -106 30 -6 66 -12 80 -15 42 -9 73 -13 129 -20 30 -4 63 -8 74 -10
126 -25 586 -24 778 1 19 2 68 8 109 13 41 6 140 24 220 41 900 190 1678 728
2186 1510 118 182 229 399 312 610 63 159 148 452 172 595 5 28 12 61 15 75 2
14 8 52 11 85 4 33 8 62 9 65 2 3 7 44 10 90 4 47 9 101 11 120 6 56 6 390 0
440 -3 25 -8 81 -12 125 -8 97 -11 121 -18 159 -3 16 -8 50 -12 75 -11 82 -73
343 -105 446 -100 316 -229 588 -416 873 -204 311 -459 587 -763 828 -88 69
-334 235 -379 255 -17 8 -31 17 -31 21 0 5 -4 8 -9 8 -4 0 -39 17 -77 38 -59
32 -201 98 -350 163 -135 58 -469 154 -644 184 -145 25 -133 23 -275 40 -22 3
-101 7 -175 11 -74 3 -140 7 -147 9 -6 2 -13 2 -15 1z m237 -310 c65 -6 110
-11 195 -22 31 -4 78 -12 175 -30 39 -7 203 -47 279 -68 170 -47 491 -185 661
-283 126 -74 365 -237 421 -288 6 -5 38 -32 70 -60 66 -56 280 -267 335 -332
20 -23 66 -80 103 -127 l67 -85 -123 -3 -123 -3 -2 -805 c-1 -443 -2 -811 -2
-818 -1 -10 -156 -12 -758 -10 l-758 3 -1 810 c-1 446 -2 813 -3 818 0 4 -88
7 -195 7 -183 0 -195 -1 -227 -22 -35 -24 -99 -146 -416 -794 -61 -126 -189
-386 -284 -579 -505 -1028 -509 -1038 -554 -1165 -18 -51 -24 -61 -30 -45 -50
143 -172 399 -653 1360 -310 622 -578 1151 -594 1177 -38 60 -57 66 -239 67
-79 1 -144 3 -146 5 -3 3 118 158 170 216 203 227 405 404 647 565 70 47 131
85 134 85 4 0 24 11 46 25 111 70 356 181 535 242 109 37 337 99 399 109 21 3
48 8 60 10 20 4 115 18 196 30 19 3 71 7 115 10 44 3 80 6 82 7 4 5 351 -1
418 -7z m-2870 -1486 c26 -301 25 -292 41 -565 10 -179 12 -228 20 -470 10
-293 10 -952 0 -1250 -7 -221 -10 -289 -21 -475 -3 -47 -7 -130 -10 -185 -3
-55 -7 -118 -10 -140 -2 -22 -7 -80 -11 -130 -4 -49 -8 -101 -9 -115 -2 -14
-4 -36 -4 -50 -3 -53 -184 265 -281 494 -57 132 -122 327 -155 461 -33 134
-39 164 -70 370 -13 87 -20 221 -20 400 1 235 9 352 41 535 36 205 96 420 175
620 48 123 178 391 217 446 11 16 34 53 52 81 19 29 34 52 36 50 1 -1 5 -36 9
-77z m5367 -112 c145 -261 244 -512 311 -790 38 -160 54 -240 62 -313 3 -28 7
-59 10 -70 27 -129 25 -577 -5 -785 -17 -117 -21 -144 -36 -215 -8 -38 -17
-81 -20 -95 -17 -88 -83 -296 -146 -455 -58 -148 -231 -485 -243 -473 -2 2 -6
48 -10 103 -3 55 -8 114 -10 130 -2 17 -7 91 -11 165 -3 74 -8 153 -9 175 -2
22 -6 126 -10 230 -4 105 -8 235 -11 290 -4 120 -4 992 1 1120 11 314 17 467
20 515 2 30 6 107 9 170 4 63 9 144 13 180 6 72 8 102 11 173 1 26 5 47 10 47
4 0 33 -46 64 -102z m-4972 -490 c1 -19 1141 -2296 1159 -2315 40 -42 81 -57
159 -56 65 0 79 4 115 29 45 31 59 58 301 555 50 101 157 321 239 489 82 168
184 377 227 465 195 403 263 542 341 700 l84 170 -2 -460 c-2 -253 -3 -1011
-4 -1685 l0 -1225 -24 -110 c-39 -190 -108 -329 -211 -427 -47 -45 -118 -98
-131 -98 -4 0 -14 -6 -22 -14 -55 -48 -337 -137 -481 -151 -14 -1 -52 -5 -85
-9 -50 -6 -83 -2 -190 24 -683 167 -1286 555 -1728 1112 -45 57 -71 98 -64
100 7 2 76 4 155 3 l143 -1 -3 1471 c-2 1159 0 1469 9 1456 7 -9 13 -19 13
-23z m4525 -1220 c6 -4 10 -306 9 -837 l-1 -831 129 0 129 0 -71 -92 c-328
-425 -778 -773 -1266 -978 -147 -62 -365 -135 -464 -156 -13 -3 -60 -13 -105
-24 -44 -10 -114 -23 -155 -30 -41 -6 -86 -13 -99 -15 -21 -4 -16 5 35 58 32
34 62 64 65 67 4 3 28 38 54 78 40 62 73 128 125 247 25 58 74 252 85 335 3
25 8 61 11 80 3 19 7 498 8 1063 2 707 6 1031 14 1035 13 9 1484 8 1497 0z"/>
</g>
</svg>
