<?xml version="1.0" encoding="UTF-8" standalone="no"?><!DOCTYPE svg PUBLIC "-//W3C//DTD SVG 1.1//EN" "http://www.w3.org/Graphics/SVG/1.1/DTD/svg11.dtd"><svg width="100%" height="100%" viewBox="0 0 55 55" version="1.1" xmlns="http://www.w3.org/2000/svg" xmlns:xlink="http://www.w3.org/1999/xlink" xml:space="preserve" style="fill-rule:evenodd;clip-rule:evenodd;stroke-linejoin:round;stroke-miterlimit:1.41421;"><g id="No-outlines"><g><g><path d="M19.79,31.196c0.168,0.325 0.315,0.665 0.442,1.023c0.126,0.358 0.249,0.719 0.369,1.084c0.121,-0.378 0.247,-0.739 0.379,-1.084c0.132,-0.344 0.283,-0.692 0.451,-1.043l8.749,-17.843c0.156,-0.311 0.318,-0.5 0.487,-0.567c0.168,-0.068 0.408,-0.101 0.721,-0.101l2.579,0l0,29.023l-3.066,0l0,-21.327c0,-0.284 0.006,-0.588 0.018,-0.912c0.012,-0.324 0.03,-0.654 0.054,-0.992l-8.856,18.147c-0.301,0.608 -0.722,0.912 -1.263,0.912l-0.505,0c-0.541,0 -0.962,-0.304 -1.263,-0.912l-9.055,-18.208c0.036,0.351 0.063,0.696 0.081,1.033c0.018,0.338 0.027,0.648 0.027,0.932l0,21.327l-3.066,0c0.885,-9.349 0.94,-19.003 0,-29.023l2.579,0c0.313,0 0.554,0.033 0.722,0.101c0.168,0.067 0.331,0.256 0.487,0.567l8.929,17.863Z" style="fill:#99bac1;fill-rule:nonzero;"/><path d="M33.967,43.727c0,3.728 -1.829,8.496 -5.464,9.026c-1.362,0.199 -2.996,0.356 -4.363,0.048c-0.202,-0.046 -1.587,-0.384 -1.641,-1.007c-0.037,-0.419 0.407,-0.327 0.647,-0.347c1.523,-0.13 2.962,-0.39 4.372,-1.111c0.414,-0.211 0.826,-0.443 1.196,-0.743c1.641,-1.334 2.179,-3.565 2.179,-5.793l0,-17.2l3.074,0l0,17.127" style="fill:#99bac1;fill-rule:nonzero;"/><path d="M48.927,41.559l-3.017,0l0,-13.146l-11.944,0l0,13.146l-3.017,0l0,-28.894l3.017,0l0,12.884l11.944,0l0,-12.884l3.017,0c-0.831,9.633 -0.853,19.265 0,28.894Z" style="fill:#99bac1;fill-rule:nonzero;"/></g></g><path id="Inner-ring" d="M27.763,0.059c14.961,0 27.106,12.146 27.106,27.106c0,14.96 -12.145,27.106 -27.106,27.106c-14.96,0 -27.105,-12.146 -27.105,-27.106c0,-14.96 12.145,-27.106 27.105,-27.106Zm0,2.326c13.677,0 24.781,11.103 24.781,24.78c0,13.677 -11.104,24.78 -24.781,24.78c-13.676,0 -24.78,-11.103 -24.78,-24.78c0,-13.677 11.104,-24.78 24.78,-24.78Z" style="fill:#99bac1;"/></g></svg>